<svg width="334" height="60" viewBox="0 0 334 60" fill="none" xmlns="http://www.w3.org/2000/svg">
<rect x="0.905605" y="0.905605" width="43.469" height="43.469" rx="21.7345" stroke="#FCC436" stroke-width="1.81121"/>
<path d="M37.7736 16.2674C37.7736 13.3233 35.2371 10.243 35.2371 11.1669C35.2371 12.0907 35.7062 24.3603 35.7062 24.3603L35.2371 32.3837C35.2371 32.9309 35.6806 33.3745 36.2278 33.3745C36.775 33.3745 37.2186 32.9309 37.2186 32.3837L36.9566 24.3142C36.9566 24.3142 37.7736 19.2116 37.7736 16.2674Z" stroke="#FCC436" stroke-width="0.625894" stroke-miterlimit="10"/>
<mask id="path-3-inside-1_13_161" fill="white">
<path d="M37.7736 16.2674C37.7736 13.3233 35.2371 10.243 35.2371 11.1669C35.2371 12.0907 35.7062 24.3603 35.7062 24.3603L35.2371 32.3837C35.2371 32.9309 35.6806 33.3745 36.2278 33.3745C36.775 33.3745 37.2186 32.9309 37.2186 32.3837L36.9566 24.3142C36.9566 24.3142 37.7736 19.2116 37.7736 16.2674Z"/>
</mask>
<path d="M35.7062 24.3603L38.8304 24.5429L38.8392 24.3919L38.8334 24.2407L35.7062 24.3603ZM35.2371 32.3837L32.1129 32.201L32.1076 32.2923V32.3837H35.2371ZM37.2186 32.3837H40.3481V32.3329L40.3464 32.2822L37.2186 32.3837ZM36.9566 24.3142L33.8665 23.8194L33.819 24.1158L33.8288 24.4157L36.9566 24.3142ZM40.9031 16.2674C40.9031 13.9968 39.9682 11.9126 39.1649 10.6174C38.77 9.98046 38.2569 9.28957 37.6759 8.78907C37.5188 8.65368 37.2895 8.47351 36.9984 8.31074C36.7572 8.17586 36.1891 7.88875 35.4165 7.87136C34.4369 7.84931 33.3516 8.28349 32.6733 9.28632C32.1448 10.0677 32.1076 10.8483 32.1076 11.1669H38.3665C38.3665 11.37 38.3491 12.0664 37.8578 12.7928C37.2167 13.7407 36.1859 14.1492 35.2756 14.1287C34.5723 14.1129 34.0885 13.8546 33.9439 13.7737C33.7494 13.665 33.6291 13.564 33.5909 13.5311C33.4855 13.4403 33.6066 13.5302 33.8458 13.9159C34.3108 14.6659 34.6442 15.5939 34.6442 16.2674H40.9031ZM32.1076 11.1669C32.1076 11.705 32.2291 15.0991 32.3443 18.2253C32.403 19.818 32.4617 21.3815 32.5057 22.5468C32.5277 23.1295 32.546 23.6127 32.5589 23.9502C32.5653 24.119 32.5703 24.2513 32.5738 24.3415C32.5755 24.3866 32.5768 24.4212 32.5777 24.4445C32.5782 24.4561 32.5785 24.4649 32.5787 24.4709C32.5788 24.4738 32.5789 24.4761 32.579 24.4776C32.579 24.4783 32.579 24.4789 32.579 24.4793C32.579 24.4795 32.579 24.4796 32.5791 24.4797C32.5791 24.4798 32.5791 24.4798 35.7062 24.3603C38.8334 24.2407 38.8334 24.2406 38.8334 24.2405C38.8334 24.2404 38.8334 24.2403 38.8334 24.2401C38.8334 24.2398 38.8334 24.2392 38.8333 24.2385C38.8333 24.237 38.8332 24.2348 38.8331 24.2318C38.8329 24.226 38.8325 24.2172 38.8321 24.2056C38.8312 24.1824 38.8299 24.1479 38.8282 24.103C38.8247 24.013 38.8197 23.8808 38.8133 23.7123C38.8005 23.3752 38.7822 22.8926 38.7602 22.3106C38.7162 21.1465 38.6576 19.5849 38.599 17.9948C38.5404 16.4041 38.4818 14.7869 38.438 13.5106C38.4161 12.8721 38.3979 12.322 38.3853 11.9044C38.3789 11.6953 38.3741 11.5228 38.3709 11.3908C38.3693 11.3248 38.3681 11.2717 38.3674 11.2308C38.367 11.2105 38.3668 11.1947 38.3667 11.1829C38.3665 11.1706 38.3665 11.1659 38.3665 11.1669H32.1076ZM32.5821 24.1776L32.1129 32.201L38.3612 32.5664L38.8304 24.5429L32.5821 24.1776ZM32.1076 32.3837C32.1076 34.6593 33.9523 36.504 36.2278 36.504V30.245C37.409 30.245 38.3665 31.2026 38.3665 32.3837H32.1076ZM36.2278 36.504C38.5034 36.504 40.3481 34.6593 40.3481 32.3837H34.0891C34.0891 31.2026 35.0467 30.245 36.2278 30.245V36.504ZM40.3464 32.2822L40.0844 24.2126L33.8288 24.4157L34.0908 32.4853L40.3464 32.2822ZM36.9566 24.3142C40.0467 24.809 40.0467 24.8088 40.0468 24.8087C40.0468 24.8086 40.0468 24.8084 40.0468 24.8082C40.0469 24.8079 40.047 24.8075 40.047 24.807C40.0472 24.806 40.0474 24.8047 40.0477 24.8031C40.0482 24.7999 40.0489 24.7954 40.0498 24.7898C40.0516 24.7785 40.0541 24.7625 40.0573 24.7418C40.0638 24.7006 40.0731 24.641 40.0848 24.5649C40.1082 24.4126 40.1413 24.194 40.1809 23.9232C40.2599 23.3825 40.3652 22.6299 40.4707 21.7808C40.6762 20.1269 40.9031 17.9489 40.9031 16.2674H34.6442C34.6442 17.5301 34.4625 19.3755 34.2595 21.0089C34.1608 21.8035 34.0619 22.5105 33.9877 23.0186C33.9506 23.2722 33.9199 23.4752 33.8986 23.6135C33.888 23.6826 33.8797 23.7356 33.8742 23.7705C33.8715 23.7879 33.8694 23.8009 33.8681 23.8091C33.8675 23.8132 33.867 23.8162 33.8667 23.8179C33.8666 23.8187 33.8665 23.8193 33.8665 23.8195C33.8665 23.8197 33.8664 23.8197 33.8664 23.8197C33.8664 23.8197 33.8665 23.8196 33.8665 23.8196C33.8665 23.8195 33.8665 23.8194 36.9566 24.3142Z" fill="#FCC436" mask="url(#path-3-inside-1_13_161)"/>
<path d="M10.6763 11.5334C10.6763 11.5334 10.7316 13.5932 10.7316 15.5489C10.7316 17.0157 10.2861 17.9368 9.65117 18.3057L9.66529 32.3837C9.66529 32.9309 9.22172 33.3745 8.67451 33.3745C8.12731 33.3745 7.68374 32.9309 7.68374 32.3837L8.0854 18.3087C7.44783 17.9417 7 17.0195 7 15.5489C7 13.5932 7.05524 11.5334 7.05524 11.5334" stroke="#FCC436" stroke-width="0.990777" stroke-miterlimit="10" stroke-linecap="round" stroke-linejoin="round"/>
<path d="M8.86584 11.5334V16.2816" stroke="#FCC436" stroke-width="0.990777" stroke-miterlimit="10" stroke-linecap="round" stroke-linejoin="round"/>
<path d="M22.8524 32.026C28.3129 32.026 32.7395 27.5994 32.7395 22.1389C32.7395 16.6784 28.3129 12.2518 22.8524 12.2518C17.3919 12.2518 12.9653 16.6784 12.9653 22.1389C12.9653 27.5994 17.3919 32.026 22.8524 32.026Z" stroke="#FCC436" stroke-width="1.87768" stroke-miterlimit="10" stroke-linecap="round" stroke-linejoin="round"/>
<path d="M22.8544 28.1783C26.1785 28.1783 28.8731 25.4836 28.8731 22.1596C28.8731 18.8355 26.1785 16.1408 22.8544 16.1408C19.5304 16.1408 16.8357 18.8355 16.8357 22.1596C16.8357 25.4836 19.5304 28.1783 22.8544 28.1783Z" fill="#FCC436"/>
<path d="M7 16.0072H10.7554L10.1295 18.5107L9.84205 32.3067C9.82787 32.9876 9.27184 33.5322 8.59081 33.5322C7.88941 33.5322 7.32495 32.9559 7.33956 32.2546L7.62589 18.5107L7 16.0072Z" fill="#FCC436"/>
<path d="M18.182 57.7139L20.0675 51.0539H20.927L22.799 57.7139H22.2185L20.4905 51.4364H20.4995L18.7625 57.7139H18.182ZM19.046 55.8644V55.3739H21.9485V55.8644H19.046ZM24.5813 50.6804V57.7139H24.0323V50.6804H24.5813ZM26.7522 50.6804V57.7139H26.2032V50.6804H26.7522Z" fill="#797D86"/>
<rect x="56.9056" y="0.905605" width="43.469" height="43.469" rx="21.7345" stroke="#FCC436" stroke-width="1.81121"/>
<path d="M71.2223 51.0764C71.6153 51.0764 71.9528 51.1304 72.2348 51.2384C72.5198 51.3434 72.7388 51.5129 72.8918 51.7469C73.0448 51.9779 73.1213 52.2779 73.1213 52.6469C73.1213 52.9919 73.0493 53.2799 72.9053 53.5109C72.7643 53.7419 72.5813 53.9159 72.3563 54.0329C72.1343 54.1499 71.9003 54.2129 71.6543 54.2219C71.9243 54.2279 72.1808 54.2879 72.4238 54.4019C72.6698 54.5129 72.8708 54.6899 73.0268 54.9329C73.1828 55.1729 73.2608 55.4924 73.2608 55.8914C73.2608 56.2874 73.1813 56.6219 73.0223 56.8949C72.8633 57.1649 72.6293 57.3689 72.3203 57.5069C72.0143 57.6449 71.6333 57.7139 71.1773 57.7139H69.1568V51.0764H71.2223ZM69.7013 54.1904L69.5078 53.9969H70.8848C71.4068 53.9969 71.8163 53.8934 72.1133 53.6864C72.4103 53.4764 72.5588 53.1554 72.5588 52.7234C72.5588 52.4324 72.4973 52.2029 72.3743 52.0349C72.2513 51.8669 72.0788 51.7469 71.8568 51.6749C71.6378 51.6029 71.3843 51.5669 71.0963 51.5669H69.4493L69.7013 51.2564V54.1904ZM71.0738 57.2234C71.5658 57.2234 71.9573 57.1139 72.2483 56.8949C72.5423 56.6759 72.6893 56.3324 72.6893 55.8644C72.6893 55.5854 72.6398 55.3574 72.5408 55.1804C72.4448 55.0004 72.3128 54.8609 72.1448 54.7619C71.9768 54.6599 71.7863 54.5894 71.5733 54.5504C71.3603 54.5084 71.1398 54.4874 70.9118 54.4874H69.5078L69.7013 54.2984V57.5339L69.4493 57.2234H71.0738ZM74.7423 55.5584V55.0589H78.6123L78.5043 55.2119C78.5043 55.1939 78.5043 55.1789 78.5043 55.1669C78.5043 55.1519 78.5043 55.1369 78.5043 55.1219C78.5043 54.8129 78.4383 54.5249 78.3063 54.2579C78.1743 53.9909 77.9823 53.7764 77.7303 53.6144C77.4813 53.4524 77.1768 53.3714 76.8168 53.3714C76.4508 53.3714 76.1283 53.4554 75.8493 53.6234C75.5703 53.7884 75.3528 54.0179 75.1968 54.3119C75.0408 54.6029 74.9628 54.9419 74.9628 55.3289C74.9628 55.7189 75.0393 56.0624 75.1923 56.3594C75.3483 56.6534 75.5658 56.8829 75.8448 57.0479C76.1238 57.2099 76.4493 57.2909 76.8213 57.2909C77.0943 57.2909 77.3313 57.2579 77.5323 57.1919C77.7363 57.1229 77.9043 57.0329 78.0363 56.9219C78.1713 56.8109 78.2733 56.6939 78.3423 56.5709C78.4143 56.4449 78.4563 56.3264 78.4683 56.2154H79.0218C79.0098 56.3924 78.9528 56.5739 78.8508 56.7599C78.7518 56.9429 78.6093 57.1139 78.4233 57.2729C78.2403 57.4319 78.0123 57.5609 77.7393 57.6599C77.4693 57.7559 77.1573 57.8039 76.8033 57.8039C76.3413 57.8039 75.9303 57.6989 75.5703 57.4889C75.2133 57.2789 74.9313 56.9894 74.7243 56.6204C74.5203 56.2484 74.4183 55.8209 74.4183 55.3379C74.4183 54.8519 74.5218 54.4244 74.7288 54.0554C74.9358 53.6834 75.2193 53.3924 75.5793 53.1824C75.9393 52.9724 76.3488 52.8674 76.8078 52.8674C77.2758 52.8674 77.6808 52.9739 78.0228 53.1869C78.3648 53.3999 78.6288 53.6894 78.8148 54.0554C79.0008 54.4184 79.0938 54.8264 79.0938 55.2794C79.0938 55.3184 79.0923 55.3679 79.0893 55.4279C79.0893 55.4879 79.0878 55.5314 79.0848 55.5584H74.7423ZM80.5167 55.5584V55.0589H84.3867L84.2787 55.2119C84.2787 55.1939 84.2787 55.1789 84.2787 55.1669C84.2787 55.1519 84.2787 55.1369 84.2787 55.1219C84.2787 54.8129 84.2127 54.5249 84.0807 54.2579C83.9487 53.9909 83.7567 53.7764 83.5047 53.6144C83.2557 53.4524 82.9512 53.3714 82.5912 53.3714C82.2252 53.3714 81.9027 53.4554 81.6237 53.6234C81.3447 53.7884 81.1272 54.0179 80.9712 54.3119C80.8152 54.6029 80.7372 54.9419 80.7372 55.3289C80.7372 55.7189 80.8137 56.0624 80.9667 56.3594C81.1227 56.6534 81.3402 56.8829 81.6192 57.0479C81.8982 57.2099 82.2237 57.2909 82.5957 57.2909C82.8687 57.2909 83.1057 57.2579 83.3067 57.1919C83.5107 57.1229 83.6787 57.0329 83.8107 56.9219C83.9457 56.8109 84.0477 56.6939 84.1167 56.5709C84.1887 56.4449 84.2307 56.3264 84.2427 56.2154H84.7962C84.7842 56.3924 84.7272 56.5739 84.6252 56.7599C84.5262 56.9429 84.3837 57.1139 84.1977 57.2729C84.0147 57.4319 83.7867 57.5609 83.5137 57.6599C83.2437 57.7559 82.9317 57.8039 82.5777 57.8039C82.1157 57.8039 81.7047 57.6989 81.3447 57.4889C80.9877 57.2789 80.7057 56.9894 80.4987 56.6204C80.2947 56.2484 80.1927 55.8209 80.1927 55.3379C80.1927 54.8519 80.2962 54.4244 80.5032 54.0554C80.7102 53.6834 80.9937 53.3924 81.3537 53.1824C81.7137 52.9724 82.1232 52.8674 82.5822 52.8674C83.0502 52.8674 83.4552 52.9739 83.7972 53.1869C84.1392 53.3999 84.4032 53.6894 84.5892 54.0554C84.7752 54.4184 84.8682 54.8264 84.8682 55.2794C84.8682 55.3184 84.8667 55.3679 84.8637 55.4279C84.8637 55.4879 84.8622 55.5314 84.8592 55.5584H80.5167ZM86.6393 57.7139V53.4254H85.5773V52.9349H86.6393V52.2734C86.6393 52.0934 86.6573 51.9209 86.6933 51.7559C86.7323 51.5909 86.7893 51.4394 86.8643 51.3014C86.9423 51.1604 87.0398 51.0389 87.1568 50.9369C87.2768 50.8349 87.4193 50.7554 87.5843 50.6984C87.7493 50.6414 87.9368 50.6129 88.1468 50.6129C88.2758 50.6129 88.3823 50.6219 88.4663 50.6399C88.5503 50.6549 88.6073 50.6699 88.6373 50.6849V51.1754C88.5983 51.1634 88.5383 51.1499 88.4573 51.1349C88.3763 51.1199 88.2893 51.1124 88.1963 51.1124C87.9833 51.1124 87.8108 51.1484 87.6788 51.2204C87.5468 51.2924 87.4448 51.3884 87.3728 51.5084C87.3038 51.6284 87.2573 51.7634 87.2333 51.9134C87.2093 52.0604 87.1973 52.2104 87.1973 52.3634V52.9349H88.6103V53.4254H87.1973V57.7139H86.6393Z" fill="#797D86"/>
<path d="M73.587 21.7288C73.587 21.7288 72.0942 21.6216 71.7116 21.239C71.329 20.8564 71.329 20.2361 71.7116 19.8535C72.0942 19.4709 72.7145 19.4709 73.0971 19.8535C73.4797 20.2361 73.587 21.7288 73.587 21.7288Z" fill="#FCC436"/>
<mask id="path-14-outside-2_13_161" maskUnits="userSpaceOnUse" x="65.1339" y="6.96164" width="27" height="16" fill="black">
<rect fill="white" x="65.1339" y="6.96164" width="27" height="16"/>
<path d="M70.3821 19.3657L71.3803 14.8356C71.3803 14.8356 67.6179 14.5284 68.1938 11.1884C68.1938 11.1884 73.0695 12.8009 74.4515 11.4188C74.4515 11.4188 77.507 8.1543 82.385 11.3977C84.0125 12.48 88.6427 11.1674 88.6427 11.1674C89.2186 14.5074 85.4562 14.8145 85.4562 14.8145L86.4544 19.3447"/>
</mask>
<path d="M67.7289 18.7811C67.4061 20.2464 68.3322 21.696 69.7975 22.0189C71.2628 22.3417 72.7124 21.4156 73.0353 19.9503L67.7289 18.7811ZM71.3803 14.8356L74.0335 15.4202C74.2023 14.654 74.0317 13.8523 73.5655 13.2213C73.0994 12.5903 72.3832 12.1916 71.6013 12.1278L71.3803 14.8356ZM68.1938 11.1884L69.0468 8.60901C68.2961 8.36072 67.4743 8.45186 66.7962 8.85866C66.1181 9.26546 65.6509 9.94753 65.5165 10.7268L68.1938 11.1884ZM74.4515 11.4188L76.3727 13.3398C76.3938 13.3186 76.4146 13.2971 76.4351 13.2753L74.4515 11.4188ZM82.385 11.3977L83.8893 9.13541L83.8892 9.13539L82.385 11.3977ZM88.6427 11.1674L91.32 10.7058C91.1891 9.94667 90.7421 9.27879 90.0902 8.86835C89.4384 8.45791 88.6429 8.3435 87.9017 8.5536L88.6427 11.1674ZM85.4562 14.8145L85.2352 12.1067C84.4533 12.1706 83.7371 12.5693 83.271 13.2003C82.8049 13.8313 82.6342 14.633 82.8031 15.3991L85.4562 14.8145ZM83.8012 19.9293C84.1241 21.3946 85.5737 22.3207 87.039 21.9979C88.5043 21.675 89.4304 20.2254 89.1076 18.7601L83.8012 19.9293ZM73.0353 19.9503L74.0335 15.4202L68.7271 14.251L67.7289 18.7811L73.0353 19.9503ZM71.3803 14.8356C71.6013 12.1278 71.6025 12.1279 71.6037 12.1279C71.604 12.128 71.6052 12.1281 71.6059 12.1281C71.6074 12.1283 71.6088 12.1284 71.6102 12.1285C71.6129 12.1287 71.6155 12.129 71.6178 12.1292C71.6225 12.1296 71.6265 12.1299 71.6296 12.1302C71.636 12.1309 71.6394 12.1312 71.64 12.1313C71.6412 12.1314 71.632 12.1304 71.6139 12.1278C71.5769 12.1223 71.5096 12.111 71.4244 12.091C71.2379 12.047 71.0519 11.9813 70.9148 11.9032C70.7823 11.8279 70.7982 11.8011 70.8341 11.867C70.8905 11.9703 70.8181 11.9577 70.8711 11.65L65.5165 10.7268C65.2816 12.0891 65.4636 13.3675 66.0633 14.4677C66.6428 15.5306 67.4913 16.2069 68.2274 16.6258C68.9589 17.042 69.6775 17.2618 70.1784 17.3798C70.437 17.4407 70.6591 17.4795 70.8255 17.5039C70.9093 17.5162 70.9803 17.525 71.0363 17.5313C71.0644 17.5344 71.0888 17.5369 71.1094 17.5389C71.1196 17.5399 71.129 17.5408 71.1373 17.5415C71.1414 17.5419 71.1453 17.5422 71.149 17.5425C71.1508 17.5427 71.1526 17.5428 71.1543 17.543C71.1552 17.543 71.1564 17.5431 71.1568 17.5432C71.158 17.5433 71.1592 17.5434 71.3803 14.8356ZM68.1938 11.1884C67.3408 13.7678 67.3412 13.768 67.3417 13.7681C67.3419 13.7682 67.3423 13.7684 67.3427 13.7685C67.3434 13.7687 67.3442 13.769 67.3451 13.7693C67.3469 13.7699 67.3489 13.7705 67.3513 13.7713C67.356 13.7728 67.3619 13.7748 67.3689 13.7771C67.383 13.7816 67.4018 13.7877 67.425 13.7951C67.4713 13.8098 67.5354 13.8299 67.6151 13.8542C67.7742 13.9026 67.9973 13.9681 68.2674 14.0412C68.8016 14.1858 69.5475 14.3676 70.3608 14.5022C71.1524 14.6333 72.1229 14.7395 73.0705 14.6767C73.9164 14.6206 75.3144 14.3981 76.3727 13.3398L72.5304 9.49771C72.8977 9.13047 73.1679 9.22469 72.711 9.25499C72.3556 9.27855 71.8481 9.24085 71.248 9.14154C70.6696 9.0458 70.1102 8.91087 69.6871 8.79633C69.4784 8.73987 69.3098 8.69024 69.1969 8.65588C69.1406 8.63874 69.0986 8.62553 69.0728 8.61733C69.0599 8.61324 69.0512 8.6104 69.0468 8.60897C69.0445 8.60825 69.0434 8.60788 69.0434 8.60789C69.0434 8.60789 69.0437 8.60798 69.0443 8.60817C69.0446 8.60826 69.0449 8.60838 69.0453 8.60852C69.0456 8.60859 69.0459 8.60871 69.046 8.60875C69.0464 8.60888 69.0468 8.60901 68.1938 11.1884ZM74.4515 11.4188C76.4351 13.2753 76.4339 13.2765 76.4328 13.2778C76.4324 13.2781 76.4312 13.2794 76.4305 13.2802C76.429 13.2817 76.4276 13.2833 76.4262 13.2847C76.4234 13.2877 76.4207 13.2905 76.4182 13.2931C76.4132 13.2984 76.4088 13.3029 76.405 13.3068C76.3974 13.3146 76.3923 13.3197 76.3894 13.3225C76.3838 13.328 76.3874 13.3242 76.3997 13.3133C76.4248 13.2909 76.4823 13.242 76.5693 13.1807C76.747 13.0557 77.0189 12.8991 77.3673 12.7949C77.9482 12.6212 79.0974 12.4744 80.8807 13.6601L83.8892 9.13539C80.7945 7.07767 77.977 6.94132 75.8108 7.58899C74.7856 7.89551 73.9887 8.35233 73.441 8.73798C73.1654 8.93207 72.9461 9.11286 72.785 9.25636C72.7043 9.32833 72.6374 9.39159 72.5847 9.44331C72.5583 9.46919 72.5353 9.49227 72.5159 9.51218C72.5062 9.52214 72.4973 9.53131 72.4894 9.53967C72.4854 9.54385 72.4816 9.54782 72.478 9.55158C72.4763 9.55346 72.4745 9.55529 72.4729 9.55706C72.472 9.55795 72.4708 9.55925 72.4704 9.55969C72.4692 9.56097 72.468 9.56223 74.4515 11.4188ZM80.8807 13.6601C81.914 14.3471 83.1168 14.4968 83.9301 14.5325C84.8253 14.5719 85.7393 14.4869 86.5054 14.3784C87.2856 14.2678 87.9955 14.1205 88.5053 14.0027C88.7624 13.9433 88.9741 13.8902 89.1248 13.8509C89.2003 13.8313 89.2609 13.815 89.3046 13.8031C89.3264 13.7972 89.3441 13.7923 89.3574 13.7886C89.364 13.7868 89.3695 13.7852 89.3739 13.784C89.3761 13.7834 89.378 13.7828 89.3797 13.7824C89.3805 13.7821 89.3812 13.7819 89.3819 13.7817C89.3822 13.7816 89.3827 13.7815 89.3828 13.7815C89.3833 13.7814 89.3837 13.7812 88.6427 11.1674C87.9017 8.5536 87.9021 8.55349 87.9025 8.55339C87.9026 8.55336 87.9029 8.55326 87.9031 8.55321C87.9035 8.5531 87.9038 8.55301 87.9041 8.55294C87.9046 8.55279 87.9048 8.55273 87.9048 8.55274C87.9047 8.55276 87.9036 8.55308 87.9014 8.55369C87.897 8.5549 87.8885 8.55726 87.876 8.56065C87.8511 8.56744 87.8106 8.57834 87.7563 8.59247C87.6475 8.62078 87.4847 8.66173 87.2824 8.70848C86.8731 8.803 86.3237 8.91618 85.743 8.99847C85.1481 9.08278 84.5994 9.12305 84.1687 9.10412C83.656 9.0816 83.6698 8.98945 83.8893 9.13541L80.8807 13.6601ZM85.9654 11.629C86.0184 11.9367 85.9461 11.9493 86.0024 11.846C86.0383 11.7801 86.0542 11.8068 85.9217 11.8822C85.7846 11.9602 85.5986 12.026 85.4121 12.07C85.3269 12.09 85.2596 12.1013 85.2226 12.1068C85.2045 12.1094 85.1953 12.1104 85.1965 12.1103C85.1971 12.1102 85.2005 12.1098 85.2069 12.1092C85.21 12.1089 85.214 12.1086 85.2187 12.1081C85.221 12.1079 85.2236 12.1077 85.2263 12.1075C85.2277 12.1074 85.2291 12.1072 85.2306 12.1071C85.2313 12.1071 85.2325 12.107 85.2329 12.1069C85.234 12.1068 85.2352 12.1067 85.4562 14.8145C85.6773 17.5224 85.6785 17.5223 85.6797 17.5222C85.6801 17.5221 85.6813 17.522 85.6822 17.5219C85.6839 17.5218 85.6857 17.5217 85.6875 17.5215C85.6912 17.5212 85.6951 17.5209 85.6992 17.5205C85.7075 17.5197 85.7169 17.5189 85.7271 17.5179C85.7477 17.5159 85.7721 17.5134 85.8002 17.5103C85.8562 17.504 85.9273 17.4952 86.011 17.4829C86.1774 17.4585 86.3996 17.4197 86.6581 17.3588C87.159 17.2408 87.8776 17.021 88.6091 16.6047C89.3453 16.1858 90.1937 15.5096 90.7732 14.4467C91.3729 13.3464 91.5549 12.0681 91.32 10.7058L85.9654 11.629ZM82.8031 15.3991L83.8012 19.9293L89.1076 18.7601L88.1094 14.2299L82.8031 15.3991Z" fill="#FCC436" mask="url(#path-14-outside-2_13_161)"/>
<path d="M74.7238 29.0474H82.4275C82.5607 29.0474 82.6883 29.1032 82.7744 29.2048C83.1891 29.6943 84.3146 31.3343 83.8003 34.2486C83.7103 34.7583 83.2298 35.1019 82.7208 35.008C81.0181 34.6942 77.1737 34.1316 74.5113 34.8482C73.9696 34.994 73.4304 34.6258 73.3635 34.0689C73.2155 32.8386 73.2088 30.822 74.3482 29.235C74.434 29.1155 74.5768 29.0474 74.7238 29.0474Z" fill="#FCC436"/>
<path d="M75.402 31.1425C75.402 31.1425 75.0658 32.5411 76.9469 32.5758" stroke="white" stroke-width="0.905605" stroke-miterlimit="10" stroke-linecap="round" stroke-linejoin="round"/>
<path d="M75.0399 36.6236C75.0399 36.6236 78.1495 40.5011 81.7967 36.7772" stroke="#FCC436" stroke-width="2.71681" stroke-miterlimit="10" stroke-linecap="round" stroke-linejoin="round"/>
<path d="M69.3527 16.387C67.8517 15.428 65.738 14.1399 63.2613 14.7496C63.2613 14.7496 62.5318 21.6216 70.7859 22.3511L71.3802 22.7826C71.3802 22.7826 70.2582 27.151 71.9983 30.6701" stroke="#FCC436" stroke-width="2.71681" stroke-miterlimit="10" stroke-linecap="round" stroke-linejoin="round"/>
<path d="M83.2495 21.7065C83.2495 21.7065 84.7423 21.5992 85.1249 21.2167C85.5075 20.8341 85.5075 20.2137 85.1249 19.8312C84.7423 19.4486 84.1219 19.4486 83.7394 19.8312C83.3568 20.2137 83.2495 21.7065 83.2495 21.7065Z" fill="#FCC436"/>
<path d="M81.9242 31.1215C81.9242 31.1215 82.2605 32.52 80.3793 32.5548" stroke="white" stroke-width="0.905605" stroke-miterlimit="10" stroke-linecap="round" stroke-linejoin="round"/>
<path d="M87.6029 16.291C89.0957 15.3662 91.1633 14.1348 93.5752 14.7286C93.5752 14.7286 94.3046 21.6006 86.0506 22.33L85.4562 22.7616C85.4562 22.7616 86.6996 26.6692 84.9595 30.1884" stroke="#FCC436" stroke-width="2.71681" stroke-miterlimit="10" stroke-linecap="round" stroke-linejoin="round"/>
<rect x="112.906" y="0.905605" width="43.469" height="43.469" rx="21.7345" stroke="#FCC436" stroke-width="1.81121"/>
<path d="M127.217 57.7994C126.728 57.7994 126.287 57.6629 125.894 57.3899C125.504 57.1169 125.195 56.7269 124.967 56.2199C124.739 55.7129 124.625 55.1054 124.625 54.3974C124.625 53.6924 124.74 53.0864 124.971 52.5794C125.205 52.0724 125.523 51.6839 125.925 51.4139C126.327 51.1409 126.782 51.0044 127.289 51.0044C127.694 51.0044 128.036 51.0764 128.315 51.2204C128.594 51.3614 128.82 51.5459 128.994 51.7739C129.171 51.9989 129.299 52.2389 129.377 52.4939C129.458 52.7489 129.498 52.9889 129.498 53.2139C129.498 53.2229 129.498 53.2319 129.498 53.2409C129.498 53.2499 129.498 53.2589 129.498 53.2679H128.954C128.954 53.2589 128.954 53.2499 128.954 53.2409C128.954 53.2319 128.954 53.2229 128.954 53.2139C128.954 53.0219 128.922 52.8254 128.859 52.6244C128.796 52.4234 128.697 52.2404 128.562 52.0754C128.427 51.9074 128.255 51.7724 128.045 51.6704C127.835 51.5654 127.583 51.5129 127.289 51.5129C126.893 51.5129 126.536 51.6254 126.218 51.8504C125.9 52.0724 125.648 52.3979 125.462 52.8269C125.279 53.2559 125.187 53.7794 125.187 54.3974C125.187 54.8684 125.238 55.2854 125.34 55.6484C125.442 56.0084 125.585 56.3114 125.768 56.5574C125.951 56.8004 126.167 56.9849 126.416 57.1109C126.665 57.2339 126.935 57.2954 127.226 57.2954C127.604 57.2954 127.913 57.2339 128.153 57.1109C128.396 56.9879 128.583 56.8364 128.715 56.6564C128.847 56.4734 128.933 56.2994 128.972 56.1344V55.1129H127.244V54.6449H129.48V57.7139H129.053L129.026 56.9264C128.999 56.9864 128.945 57.0644 128.864 57.1604C128.783 57.2564 128.67 57.3539 128.526 57.4529C128.382 57.5489 128.201 57.6314 127.982 57.7004C127.766 57.7664 127.511 57.7994 127.217 57.7994ZM133.129 57.7949C132.661 57.7949 132.247 57.6884 131.887 57.4754C131.527 57.2594 131.245 56.9639 131.041 56.5889C130.837 56.2139 130.735 55.7909 130.735 55.3199C130.735 54.8459 130.837 54.4244 131.041 54.0554C131.245 53.6864 131.527 53.3969 131.887 53.1869C132.247 52.9769 132.661 52.8719 133.129 52.8719C133.597 52.8719 134.011 52.9769 134.371 53.1869C134.731 53.3969 135.013 53.6864 135.217 54.0554C135.421 54.4244 135.523 54.8459 135.523 55.3199C135.523 55.7909 135.421 56.2139 135.217 56.5889C135.013 56.9639 134.731 57.2594 134.371 57.4754C134.011 57.6884 133.597 57.7949 133.129 57.7949ZM133.129 57.2864C133.489 57.2864 133.805 57.2024 134.078 57.0344C134.354 56.8664 134.57 56.6339 134.726 56.3369C134.882 56.0399 134.96 55.7009 134.96 55.3199C134.96 54.9359 134.882 54.5984 134.726 54.3074C134.57 54.0164 134.354 53.7899 134.078 53.6279C133.805 53.4629 133.489 53.3804 133.129 53.3804C132.772 53.3804 132.455 53.4629 132.179 53.6279C131.903 53.7899 131.687 54.0164 131.531 54.3074C131.375 54.5984 131.297 54.9359 131.297 55.3199C131.297 55.7009 131.375 56.0399 131.531 56.3369C131.687 56.6339 131.903 56.8664 132.179 57.0344C132.455 57.2024 132.772 57.2864 133.129 57.2864ZM138.482 57.7994C138.116 57.7994 137.796 57.7439 137.523 57.6329C137.25 57.5219 137.039 57.3614 136.889 57.1514C136.742 56.9384 136.668 56.6819 136.668 56.3819C136.668 56.0789 136.746 55.8269 136.902 55.6259C137.058 55.4219 137.28 55.2629 137.568 55.1489C137.859 55.0349 138.203 54.9584 138.599 54.9194C139.208 54.8564 139.644 54.7934 139.908 54.7304C140.175 54.6644 140.309 54.5594 140.309 54.4154C140.309 54.4064 140.309 54.3974 140.309 54.3884C140.309 54.3764 140.309 54.3644 140.309 54.3524C140.309 54.0434 140.183 53.8034 139.931 53.6324C139.679 53.4614 139.32 53.3759 138.855 53.3759C138.369 53.3759 137.99 53.4719 137.717 53.6639C137.447 53.8559 137.312 54.1409 137.312 54.5189H136.763C136.763 54.1739 136.85 53.8784 137.024 53.6324C137.198 53.3834 137.442 53.1944 137.757 53.0654C138.072 52.9334 138.44 52.8674 138.86 52.8674C139.238 52.8674 139.578 52.9259 139.881 53.0429C140.184 53.1599 140.424 53.3309 140.601 53.5559C140.781 53.7779 140.871 54.0524 140.871 54.3794C140.871 54.4424 140.871 54.5054 140.871 54.5684C140.871 54.6284 140.871 54.6899 140.871 54.7529V56.8679C140.871 56.9699 140.876 57.0674 140.885 57.1604C140.894 57.2534 140.907 57.3344 140.925 57.4034C140.952 57.4904 140.981 57.5594 141.011 57.6104C141.041 57.6614 141.065 57.6959 141.083 57.7139H140.52C140.508 57.7019 140.489 57.6704 140.462 57.6194C140.435 57.5654 140.408 57.5024 140.381 57.4304C140.357 57.3554 140.34 57.2714 140.331 57.1784C140.322 57.0854 140.318 56.9729 140.318 56.8409L140.408 56.9084C140.312 57.0854 140.172 57.2414 139.989 57.3764C139.806 57.5084 139.587 57.6119 139.332 57.6869C139.077 57.7619 138.794 57.7994 138.482 57.7994ZM138.567 57.2999C138.891 57.2999 139.184 57.2474 139.445 57.1424C139.709 57.0344 139.919 56.8814 140.075 56.6834C140.231 56.4824 140.309 56.2394 140.309 55.9544V54.8384L140.43 55.0454C140.256 55.1324 140.019 55.2029 139.719 55.2569C139.419 55.3079 139.094 55.3499 138.743 55.3829C138.248 55.4309 137.871 55.5254 137.613 55.6664C137.358 55.8074 137.231 56.0369 137.231 56.3549C137.231 56.6609 137.343 56.8949 137.568 57.0569C137.793 57.2189 138.126 57.2999 138.567 57.2999ZM143.848 57.7859C143.713 57.7859 143.581 57.7694 143.452 57.7364C143.326 57.7034 143.212 57.6449 143.11 57.5609C143.011 57.4739 142.933 57.3554 142.876 57.2054C142.819 57.0554 142.791 56.8649 142.791 56.6339C142.791 56.5709 142.791 56.5064 142.791 56.4404C142.791 56.3714 142.791 56.2994 142.791 56.2244V53.4254H141.639V52.9349H142.467C142.545 52.9349 142.606 52.9319 142.651 52.9259C142.696 52.9199 142.728 52.9049 142.746 52.8809C142.767 52.8569 142.779 52.8194 142.782 52.7684C142.788 52.7174 142.791 52.6469 142.791 52.5569V51.3914H143.349V52.9349H144.879V53.4254H143.349V56.0399C143.349 56.1119 143.349 56.1809 143.349 56.2469C143.349 56.3129 143.349 56.3744 143.349 56.4314C143.349 56.7014 143.388 56.9129 143.466 57.0659C143.547 57.2189 143.698 57.2954 143.92 57.2954C144.004 57.2954 144.087 57.2879 144.168 57.2729C144.249 57.2579 144.31 57.2414 144.352 57.2234V57.7094C144.301 57.7304 144.231 57.7484 144.141 57.7634C144.051 57.7784 143.953 57.7859 143.848 57.7859Z" fill="#797D86"/>
<g clip-path="url(#clip0_13_161)">
<path d="M143.874 7.85033L143.874 7.85029C143.807 7.83698 143.11 7.70341 142.191 7.76712C141.272 7.83073 140.109 8.09268 139.134 8.89176C138.355 9.52961 137.83 10.387 137.555 11.4384C135.944 10.866 134.138 10.8357 132.445 11.4386C132.17 10.3871 131.645 9.5297 130.867 8.89181C129.891 8.09274 128.728 7.83076 127.81 7.76713C126.89 7.70339 126.193 7.83694 126.126 7.85032L126.126 7.85034C125.45 7.98613 125.009 8.64486 125.144 9.32235L125.144 9.32237C125.28 9.99762 125.935 10.4377 126.612 10.3029C126.645 10.2968 127.057 10.226 127.587 10.2552C128.145 10.2859 128.798 10.4258 129.289 10.8313C129.756 11.2171 130.054 11.845 130.143 12.7456C129.603 13.1923 129.124 13.714 128.723 14.2981H122.415C121.724 14.2981 121.165 14.8578 121.165 15.5482C121.165 18.3607 123.601 20.5488 126.366 20.2792C126.317 20.4224 126.258 20.5934 126.189 20.7911C125.794 21.9365 125.088 23.9821 124.128 26.7613C123.903 27.4139 124.249 28.1256 124.902 28.3508C125.555 28.5761 126.266 28.2297 126.491 27.5772L126.836 26.5791L130.165 34.9663C130.954 36.9547 132.844 38.2422 134.982 38.2493L134.984 38.2495C134.988 38.2497 134.994 38.2499 135 38.2499C135.003 38.2499 135.006 38.2498 135.009 38.2498C135.011 38.2497 135.014 38.2496 135.016 38.2495L135.018 38.2493C137.155 38.2422 139.046 36.9548 139.836 34.9664L139.836 34.9663L143.164 26.5793L143.508 27.5772L143.508 27.5772C143.734 28.23 144.446 28.576 145.098 28.3508L145.098 28.3508C145.751 28.1255 146.097 27.4139 145.872 26.7613L145.635 26.8429L145.872 26.7613C145.648 26.1147 145.454 25.5528 145.284 25.0594C144.314 22.25 144.11 21.6595 143.647 20.2805C146.415 20.543 148.835 18.3476 148.835 15.5482C148.835 14.8578 148.276 14.2981 147.585 14.2981H141.28C140.891 13.7005 140.441 13.2098 139.857 12.7402C139.948 11.8424 140.245 11.2163 140.711 10.8313C141.202 10.4257 141.855 10.2859 142.413 10.255C142.95 10.2253 143.363 10.2983 143.382 10.3017C143.383 10.3018 143.383 10.3018 143.383 10.3018L143.431 10.0565L143.382 10.3016C144.059 10.437 144.718 9.99883 144.854 9.32198C144.989 8.645 144.551 7.9862 143.874 7.85033ZM137.489 29.5873L137.489 29.5873C138.188 28.7802 137.616 27.5188 136.544 27.5188H133.456C132.388 27.5188 131.81 28.7774 132.511 29.5873L132.511 29.5873L133.75 31.0182V35.4461C133.188 35.1541 132.735 34.6656 132.488 34.0442L132.256 34.1364L132.488 34.0442L128.087 22.9541C129.645 18.4424 129.737 18.1782 129.827 17.9138C129.847 17.8562 129.867 17.7986 129.902 17.6971L129.902 17.697C130.86 14.8974 132.933 13.4848 134.975 13.4584C137.013 13.432 139.102 14.7862 140.098 17.6956L140.098 17.6957C140.281 18.2293 140.996 20.2982 141.481 21.7037C141.683 22.2868 141.845 22.7558 141.913 22.9536L137.512 34.0441C137.265 34.6654 136.813 35.154 136.25 35.446V31.0182L137.489 29.5873ZM127.42 17.2264C126.386 18.1535 124.787 17.9211 124.043 16.7983H127.567C127.553 16.8385 127.539 16.8794 127.524 16.9211C127.491 17.0182 127.457 17.1194 127.42 17.2264ZM145.957 16.7983C145.227 17.8991 143.666 18.1529 142.623 17.2625C142.566 17.1024 142.509 16.9478 142.454 16.7983H145.957Z" fill="#FCC436" stroke="#FCC436" stroke-width="0.5"/>
<path d="M137.755 23.9374C138.485 23.9374 139.078 23.3451 139.078 22.6145C139.078 21.8839 138.485 21.2916 137.755 21.2916C137.024 21.2916 136.432 21.8839 136.432 22.6145C136.432 23.3451 137.024 23.9374 137.755 23.9374Z" fill="#FCC436"/>
<path d="M132.285 23.9374C133.016 23.9374 133.608 23.3451 133.608 22.6145C133.608 21.8839 133.016 21.2916 132.285 21.2916C131.555 21.2916 130.963 21.8839 130.963 22.6145C130.963 23.3451 131.555 23.9374 132.285 23.9374Z" fill="#FCC436"/>
</g>
<rect x="168.906" y="0.905605" width="43.469" height="43.469" rx="21.7345" stroke="#FCC436" stroke-width="1.81121"/>
<path d="M178.359 55.4639C178.359 55.7249 178.311 55.9919 178.215 56.2649C178.119 56.5379 177.975 56.7914 177.783 57.0254C177.591 57.2564 177.35 57.4439 177.059 57.5879C176.768 57.7289 176.427 57.7994 176.037 57.7994C175.497 57.7994 175.037 57.6554 174.656 57.3674C174.275 57.0794 173.984 56.6789 173.783 56.1659C173.585 55.6529 173.486 55.0634 173.486 54.3974C173.486 53.7284 173.585 53.1389 173.783 52.6289C173.984 52.1189 174.275 51.7214 174.656 51.4364C175.037 51.1484 175.497 51.0044 176.037 51.0044C176.49 51.0044 176.876 51.1004 177.194 51.2924C177.515 51.4814 177.768 51.7229 177.954 52.0169C178.143 52.3109 178.265 52.6124 178.319 52.9214C178.346 53.0624 178.359 53.1974 178.359 53.3264H177.801C177.801 53.2454 177.794 53.1509 177.779 53.0429C177.74 52.7789 177.647 52.5314 177.5 52.3004C177.356 52.0664 177.161 51.8759 176.915 51.7289C176.672 51.5819 176.379 51.5084 176.037 51.5084C175.638 51.5084 175.29 51.6224 174.993 51.8504C174.696 52.0754 174.465 52.4024 174.3 52.8314C174.135 53.2604 174.053 53.7824 174.053 54.3974C174.053 55.0094 174.135 55.5329 174.3 55.9679C174.465 56.3999 174.696 56.7299 174.993 56.9579C175.29 57.1829 175.638 57.2954 176.037 57.2954C176.322 57.2954 176.574 57.2414 176.793 57.1334C177.012 57.0254 177.197 56.8829 177.347 56.7059C177.497 56.5259 177.609 56.3279 177.684 56.1119C177.762 55.8959 177.801 55.6799 177.801 55.4639H178.359ZM183.044 57.7139V55.9094C183.044 55.8194 183.044 55.7144 183.044 55.5944C183.044 55.4744 183.044 55.3544 183.044 55.2344C183.044 55.1114 183.044 55.0049 183.044 54.9149C183.044 54.4259 182.934 54.0509 182.715 53.7899C182.499 53.5259 182.166 53.3939 181.716 53.3939C181.413 53.3939 181.145 53.4569 180.911 53.5829C180.677 53.7089 180.492 53.8769 180.357 54.0869C180.225 54.2939 180.159 54.5234 180.159 54.7754L179.79 54.6674C179.79 54.3464 179.876 54.0494 180.047 53.7764C180.221 53.5034 180.459 53.2844 180.762 53.1194C181.068 52.9514 181.418 52.8674 181.811 52.8674C182.381 52.8674 182.82 53.0399 183.129 53.3849C183.441 53.7299 183.597 54.2069 183.597 54.8159C183.597 54.9779 183.597 55.1609 183.597 55.3649C183.597 55.5659 183.597 55.7714 183.597 55.9814V57.7139H183.044ZM179.601 57.7139V50.6804H180.159V57.7139H179.601ZM185.126 57.7139V52.9349H185.675V57.7139H185.126ZM185.405 51.7289C185.288 51.7289 185.187 51.6959 185.103 51.6299C185.019 51.5609 184.977 51.4694 184.977 51.3554C184.977 51.2444 185.019 51.1559 185.103 51.0899C185.187 51.0209 185.288 50.9864 185.405 50.9864C185.519 50.9864 185.618 51.0209 185.702 51.0899C185.786 51.1559 185.828 51.2444 185.828 51.3554C185.828 51.4694 185.786 51.5609 185.702 51.6299C185.618 51.6959 185.519 51.7289 185.405 51.7289ZM189.43 57.7994C188.992 57.7994 188.592 57.7019 188.229 57.5069C187.866 57.3089 187.575 57.0254 187.356 56.6564C187.14 56.2874 187.032 55.8434 187.032 55.3244C187.032 54.8054 187.14 54.3629 187.356 53.9969C187.575 53.6309 187.866 53.3519 188.229 53.1599C188.592 52.9649 188.992 52.8674 189.43 52.8674C189.766 52.8674 190.066 52.9199 190.33 53.0249C190.594 53.1269 190.818 53.2634 191.001 53.4344C191.184 53.6024 191.323 53.7869 191.419 53.9879C191.515 54.1889 191.563 54.3869 191.563 54.5819C191.563 54.5849 191.563 54.5894 191.563 54.5954C191.563 54.5984 191.563 54.6029 191.563 54.6089H191.01C191.01 54.5939 191.008 54.5774 191.005 54.5594C191.005 54.5384 191.004 54.5189 191.001 54.5009C190.974 54.2849 190.888 54.0929 190.744 53.9249C190.6 53.7569 190.416 53.6234 190.191 53.5244C189.966 53.4254 189.711 53.3759 189.426 53.3759C189.105 53.3759 188.805 53.4494 188.526 53.5964C188.25 53.7404 188.026 53.9564 187.855 54.2444C187.684 54.5324 187.599 54.8924 187.599 55.3244C187.599 55.7534 187.683 56.1149 187.851 56.4089C188.022 56.6999 188.245 56.9204 188.521 57.0704C188.8 57.2174 189.102 57.2909 189.426 57.2909C189.78 57.2909 190.072 57.2324 190.303 57.1154C190.534 56.9984 190.708 56.8469 190.825 56.6609C190.942 56.4749 191.004 56.2814 191.01 56.0804H191.563C191.563 56.2814 191.517 56.4839 191.424 56.6879C191.334 56.8919 191.199 57.0779 191.019 57.2459C190.842 57.4139 190.62 57.5489 190.353 57.6509C190.089 57.7499 189.781 57.7994 189.43 57.7994ZM192.881 57.7139V50.6804H193.412V55.0859L193.255 55.0184L195.734 52.9349H196.459L194.137 54.9284L194.272 54.6314L196.499 57.7139H195.892L193.898 54.9329L194.042 55.0139L193.322 55.6214L193.412 55.3424V57.7139H192.881ZM197.366 55.5584V55.0589H201.236L201.128 55.2119C201.128 55.1939 201.128 55.1789 201.128 55.1669C201.128 55.1519 201.128 55.1369 201.128 55.1219C201.128 54.8129 201.062 54.5249 200.93 54.2579C200.798 53.9909 200.606 53.7764 200.354 53.6144C200.105 53.4524 199.801 53.3714 199.441 53.3714C199.075 53.3714 198.752 53.4554 198.473 53.6234C198.194 53.7884 197.977 54.0179 197.821 54.3119C197.665 54.6029 197.587 54.9419 197.587 55.3289C197.587 55.7189 197.663 56.0624 197.816 56.3594C197.972 56.6534 198.19 56.8829 198.469 57.0479C198.748 57.2099 199.073 57.2909 199.445 57.2909C199.718 57.2909 199.955 57.2579 200.156 57.1919C200.36 57.1229 200.528 57.0329 200.66 56.9219C200.795 56.8109 200.897 56.6939 200.966 56.5709C201.038 56.4449 201.08 56.3264 201.092 56.2154H201.646C201.634 56.3924 201.577 56.5739 201.475 56.7599C201.376 56.9429 201.233 57.1139 201.047 57.2729C200.864 57.4319 200.636 57.5609 200.363 57.6599C200.093 57.7559 199.781 57.8039 199.427 57.8039C198.965 57.8039 198.554 57.6989 198.194 57.4889C197.837 57.2789 197.555 56.9894 197.348 56.6204C197.144 56.2484 197.042 55.8209 197.042 55.3379C197.042 54.8519 197.146 54.4244 197.353 54.0554C197.56 53.6834 197.843 53.3924 198.203 53.1824C198.563 52.9724 198.973 52.8674 199.432 52.8674C199.9 52.8674 200.305 52.9739 200.647 53.1869C200.989 53.3999 201.253 53.6894 201.439 54.0554C201.625 54.4184 201.718 54.8264 201.718 55.2794C201.718 55.3184 201.716 55.3679 201.713 55.4279C201.713 55.4879 201.712 55.5314 201.709 55.5584H197.366ZM206.471 57.7139V55.3379C206.471 55.1909 206.471 55.0739 206.471 54.9869C206.471 54.8999 206.471 54.8144 206.471 54.7304C206.471 54.4634 206.423 54.2309 206.327 54.0329C206.234 53.8319 206.09 53.6759 205.895 53.5649C205.7 53.4509 205.449 53.3939 205.143 53.3939C204.873 53.3939 204.62 53.4614 204.383 53.5964C204.146 53.7284 203.954 53.9084 203.807 54.1364C203.663 54.3644 203.591 54.6209 203.591 54.9059L203.253 54.7799C203.253 54.4169 203.346 54.0914 203.532 53.8034C203.721 53.5154 203.967 53.2874 204.27 53.1194C204.576 52.9514 204.9 52.8674 205.242 52.8674C205.605 52.8674 205.92 52.9364 206.187 53.0744C206.454 53.2094 206.66 53.4059 206.804 53.6639C206.951 53.9189 207.024 54.2294 207.024 54.5954C207.024 54.7214 207.024 54.8564 207.024 55.0004C207.024 55.1444 207.024 55.2749 207.024 55.3919V57.7139H206.471ZM203.033 57.7139V52.9349H203.591V57.7139H203.033Z" fill="#797D86"/>
<path d="M194.95 14.3857C194.95 14.3857 197.064 10.8824 196.098 10.3991C195.131 9.91591 193.682 10.8824 193.682 10.8824C193.682 10.8824 194.648 7.49979 192.715 7.49979C190.782 7.49979 190.299 9.43269 190.299 9.43269C190.299 9.43269 189.595 5.42385 186.916 6.53334C185.243 7.22677 184.5 8.94946 186.916 13.7817" fill="#FCC436"/>
<path d="M186.905 24.1084C187.655 24.1084 188.263 23.5003 188.263 22.75C188.263 21.9998 187.655 21.3916 186.905 21.3916C186.155 21.3916 185.546 21.9998 185.546 22.75C185.546 23.5003 186.155 24.1084 186.905 24.1084Z" fill="#FCC436"/>
<path d="M195.603 24.1084C196.353 24.1084 196.961 23.5003 196.961 22.75C196.961 21.9998 196.353 21.3916 195.603 21.3916C194.853 21.3916 194.245 21.9998 194.245 22.75C194.245 23.5003 194.853 24.1084 195.603 24.1084Z" fill="#FCC436"/>
<path d="M190.872 24.291C190.872 24.291 199.57 23.8077 190.872 32.989C190.872 32.989 182.174 24.291 190.872 24.291Z" fill="#FCC436"/>
<path d="M190.862 34.4387C190.907 35.7963 190.908 35.7963 190.909 35.7963L190.91 35.7962L190.915 35.7961L190.928 35.7956L190.97 35.7937C191.004 35.792 191.052 35.7894 191.112 35.7855C191.232 35.7776 191.401 35.7644 191.611 35.7427C192.029 35.6993 192.613 35.6214 193.288 35.4822C194.62 35.2078 196.395 34.6777 197.958 33.6361C199.547 32.5764 200.956 30.9547 201.374 28.5563C201.782 26.2163 201.208 23.3565 199.347 19.8579C199.327 19.8067 199.299 19.7382 199.263 19.6548C199.187 19.4813 199.076 19.2418 198.925 18.9582C198.626 18.3939 198.164 17.6393 197.508 16.8795C196.19 15.3538 194.032 13.7513 190.862 13.7513C187.692 13.7513 185.534 15.3538 184.216 16.8795C183.56 17.6393 183.098 18.3939 182.799 18.9582C182.648 19.2418 182.537 19.4813 182.461 19.6548C182.425 19.7382 182.397 19.8067 182.377 19.8579C180.516 23.3565 179.942 26.2163 180.35 28.5563C180.768 30.9547 182.177 32.5764 183.766 33.6361C185.329 34.6777 187.104 35.2078 188.436 35.4822C189.111 35.6214 189.695 35.6993 190.113 35.7427C190.323 35.7644 190.492 35.7776 190.612 35.7855C190.672 35.7894 190.72 35.792 190.754 35.7937L190.796 35.7956L190.809 35.7961L190.814 35.7962L190.815 35.7963C190.816 35.7963 190.817 35.7963 190.862 34.4387ZM190.862 34.4387L190.817 35.7963C190.847 35.7973 190.877 35.7973 190.907 35.7963L190.862 34.4387Z" stroke="#FCC436" stroke-width="2.71681" stroke-miterlimit="10" stroke-linecap="round" stroke-linejoin="round"/>
<rect x="228.906" y="0.905605" width="43.469" height="43.469" rx="21.7345" stroke="#FCC436" stroke-width="1.81121"/>
<path d="M260.292 19.7364V30.9394C260.292 31.6862 260.028 32.3239 259.5 32.8523C258.971 33.3808 258.333 33.645 257.587 33.645H244.058C243.312 33.645 242.674 33.3808 242.145 32.8523C241.617 32.3239 241.353 31.6862 241.353 30.9394V19.7364C240.944 19.4968 240.617 19.1727 240.37 18.7641C240.123 18.3554 240 17.9045 240 17.4113C240 16.4248 240.483 15.5194 241.448 14.6951C242.413 13.8707 243.727 13.2154 245.39 12.7293C247.053 12.2431 248.864 12 250.823 12C252.781 12 254.592 12.2431 256.255 12.7293C257.918 13.2154 259.232 13.8707 260.197 14.6951C261.162 15.5194 261.645 16.4248 261.645 17.4113C261.645 17.9045 261.522 18.3554 261.275 18.7641C261.028 19.1727 260.701 19.4968 260.292 19.7364Z" fill="#FCC436"/>
<path d="M250.456 23.0859C250.491 22.9217 250.588 22.7578 250.705 22.6486C250.762 22.5955 250.809 22.5685 250.837 22.5574L250.842 22.5554C251.155 22.606 251.456 22.4021 251.522 22.0884C251.591 21.7652 251.384 21.4479 251.061 21.3796C250.58 21.2782 250.152 21.5276 249.888 21.7749C249.605 22.0398 249.374 22.4178 249.285 22.8388C249.217 23.1621 249.424 23.4794 249.747 23.5476C250.07 23.6158 250.388 23.4091 250.456 23.0859Z" fill="white"/>
<path d="M245.466 20.2267C243.328 21.9298 243.272 24.8155 244.274 26.7596C244.948 28.0661 246.242 29.2289 248.185 29.2289C248.667 29.2289 249.014 29.2157 249.288 29.2053C250.117 29.1738 250.268 29.1681 251.422 29.634C252.957 30.2536 254.59 30.0697 255.954 29.2094C257.182 28.4352 257.886 26.6375 257.767 25.1786C257.704 24.4053 257.773 24.0899 257.852 23.7299C257.922 23.4108 258 23.0566 258 22.3172C258 20.7437 257.534 19.7406 257.068 18.9202C256.602 18.0997 256.095 17.2869 254.659 16.3723C253.48 15.6212 251.246 15.2613 249.48 16.2417C248.185 16.9603 247.537 17.6136 246.76 18.9202C246.466 19.4148 246.184 19.6542 245.466 20.2267ZM255.129 23.1814C255.129 25.3615 253.362 27.129 251.181 27.129C249.001 27.129 247.234 25.3615 247.234 23.1814C247.234 21.0012 249.001 19.2338 251.181 19.2338C253.362 19.2338 255.129 21.0012 255.129 23.1814Z" fill="white"/>
<path d="M232.428 51.0764C232.821 51.0764 233.159 51.1304 233.441 51.2384C233.726 51.3434 233.945 51.5129 234.098 51.7469C234.251 51.9779 234.327 52.2779 234.327 52.6469C234.327 52.9919 234.255 53.2799 234.111 53.5109C233.97 53.7419 233.787 53.9159 233.562 54.0329C233.34 54.1499 233.106 54.2129 232.86 54.2219C233.13 54.2279 233.387 54.2879 233.63 54.4019C233.876 54.5129 234.077 54.6899 234.233 54.9329C234.389 55.1729 234.467 55.4924 234.467 55.8914C234.467 56.2874 234.387 56.6219 234.228 56.8949C234.069 57.1649 233.835 57.3689 233.526 57.5069C233.22 57.6449 232.839 57.7139 232.383 57.7139H230.363V51.0764H232.428ZM230.907 54.1904L230.714 53.9969H232.091C232.613 53.9969 233.022 53.8934 233.319 53.6864C233.616 53.4764 233.765 53.1554 233.765 52.7234C233.765 52.4324 233.703 52.2029 233.58 52.0349C233.457 51.8669 233.285 51.7469 233.063 51.6749C232.844 51.6029 232.59 51.5669 232.302 51.5669H230.655L230.907 51.2564V54.1904ZM232.28 57.2234C232.772 57.2234 233.163 57.1139 233.454 56.8949C233.748 56.6759 233.895 56.3324 233.895 55.8644C233.895 55.5854 233.846 55.3574 233.747 55.1804C233.651 55.0004 233.519 54.8609 233.351 54.7619C233.183 54.6599 232.992 54.5894 232.779 54.5504C232.566 54.5084 232.346 54.4874 232.118 54.4874H230.714L230.907 54.2984V57.5339L230.655 57.2234H232.28ZM235.84 57.7139V52.9349H236.398V54.3434L236.2 54.2804C236.218 54.1304 236.262 53.9744 236.331 53.8124C236.403 53.6474 236.502 53.4929 236.628 53.3489C236.754 53.2049 236.911 53.0894 237.1 53.0024C237.292 52.9124 237.52 52.8674 237.784 52.8674C237.976 52.8674 238.131 52.8839 238.248 52.9169C238.365 52.9499 238.438 52.9754 238.468 52.9934L238.315 53.5334C238.285 53.5124 238.224 53.4854 238.131 53.4524C238.038 53.4194 237.904 53.4029 237.73 53.4029C237.478 53.4029 237.267 53.4524 237.096 53.5514C236.925 53.6474 236.788 53.7734 236.686 53.9294C236.584 54.0854 236.511 54.2519 236.466 54.4289C236.421 54.6029 236.398 54.7709 236.398 54.9329V57.7139H235.84ZM239.394 55.5584V55.0589H243.264L243.156 55.2119C243.156 55.1939 243.156 55.1789 243.156 55.1669C243.156 55.1519 243.156 55.1369 243.156 55.1219C243.156 54.8129 243.09 54.5249 242.958 54.2579C242.826 53.9909 242.634 53.7764 242.382 53.6144C242.133 53.4524 241.828 53.3714 241.468 53.3714C241.102 53.3714 240.78 53.4554 240.501 53.6234C240.222 53.7884 240.004 54.0179 239.848 54.3119C239.692 54.6029 239.614 54.9419 239.614 55.3289C239.614 55.7189 239.691 56.0624 239.844 56.3594C240 56.6534 240.217 56.8829 240.496 57.0479C240.775 57.2099 241.101 57.2909 241.473 57.2909C241.746 57.2909 241.983 57.2579 242.184 57.1919C242.388 57.1229 242.556 57.0329 242.688 56.9219C242.823 56.8109 242.925 56.6939 242.994 56.5709C243.066 56.4449 243.108 56.3264 243.12 56.2154H243.673C243.661 56.3924 243.604 56.5739 243.502 56.7599C243.403 56.9429 243.261 57.1139 243.075 57.2729C242.892 57.4319 242.664 57.5609 242.391 57.6599C242.121 57.7559 241.809 57.8039 241.455 57.8039C240.993 57.8039 240.582 57.6989 240.222 57.4889C239.865 57.2789 239.583 56.9894 239.376 56.6204C239.172 56.2484 239.07 55.8209 239.07 55.3379C239.07 54.8519 239.173 54.4244 239.38 54.0554C239.587 53.6834 239.871 53.3924 240.231 53.1824C240.591 52.9724 241 52.8674 241.459 52.8674C241.927 52.8674 242.332 52.9739 242.674 53.1869C243.016 53.3999 243.28 53.6894 243.466 54.0554C243.652 54.4184 243.745 54.8264 243.745 55.2794C243.745 55.3184 243.744 55.3679 243.741 55.4279C243.741 55.4879 243.739 55.5314 243.736 55.5584H239.394ZM246.702 57.7994C246.336 57.7994 246.017 57.7439 245.744 57.6329C245.471 57.5219 245.259 57.3614 245.109 57.1514C244.962 56.9384 244.889 56.6819 244.889 56.3819C244.889 56.0789 244.967 55.8269 245.123 55.6259C245.279 55.4219 245.501 55.2629 245.789 55.1489C246.08 55.0349 246.423 54.9584 246.819 54.9194C247.428 54.8564 247.865 54.7934 248.129 54.7304C248.396 54.6644 248.529 54.5594 248.529 54.4154C248.529 54.4064 248.529 54.3974 248.529 54.3884C248.529 54.3764 248.529 54.3644 248.529 54.3524C248.529 54.0434 248.403 53.8034 248.151 53.6324C247.899 53.4614 247.541 53.3759 247.076 53.3759C246.59 53.3759 246.21 53.4719 245.937 53.6639C245.667 53.8559 245.532 54.1409 245.532 54.5189H244.983C244.983 54.1739 245.07 53.8784 245.244 53.6324C245.418 53.3834 245.663 53.1944 245.978 53.0654C246.293 52.9334 246.66 52.8674 247.08 52.8674C247.458 52.8674 247.799 52.9259 248.102 53.0429C248.405 53.1599 248.645 53.3309 248.822 53.5559C249.002 53.7779 249.092 54.0524 249.092 54.3794C249.092 54.4424 249.092 54.5054 249.092 54.5684C249.092 54.6284 249.092 54.6899 249.092 54.7529V56.8679C249.092 56.9699 249.096 57.0674 249.105 57.1604C249.114 57.2534 249.128 57.3344 249.146 57.4034C249.173 57.4904 249.201 57.5594 249.231 57.6104C249.261 57.6614 249.285 57.6959 249.303 57.7139H248.741C248.729 57.7019 248.709 57.6704 248.682 57.6194C248.655 57.5654 248.628 57.5024 248.601 57.4304C248.577 57.3554 248.561 57.2714 248.552 57.1784C248.543 57.0854 248.538 56.9729 248.538 56.8409L248.628 56.9084C248.532 57.0854 248.393 57.2414 248.21 57.3764C248.027 57.5084 247.808 57.6119 247.553 57.6869C247.298 57.7619 247.014 57.7994 246.702 57.7994ZM246.788 57.2999C247.112 57.2999 247.404 57.2474 247.665 57.1424C247.929 57.0344 248.139 56.8814 248.295 56.6834C248.451 56.4824 248.529 56.2394 248.529 55.9544V54.8384L248.651 55.0454C248.477 55.1324 248.24 55.2029 247.94 55.2569C247.64 55.3079 247.314 55.3499 246.963 55.3829C246.468 55.4309 246.092 55.5254 245.834 55.6664C245.579 55.8074 245.451 56.0369 245.451 56.3549C245.451 56.6609 245.564 56.8949 245.789 57.0569C246.014 57.2189 246.347 57.2999 246.788 57.2999ZM250.509 57.7139V50.6804H251.04V55.0859L250.883 55.0184L253.362 52.9349H254.087L251.765 54.9284L251.9 54.6314L254.127 57.7139H253.52L251.526 54.9329L251.67 55.0139L250.95 55.6214L251.04 55.3424V57.7139H250.509ZM255.685 57.7139V53.4254H254.623V52.9349H255.685V52.2734C255.685 52.0934 255.703 51.9209 255.739 51.7559C255.778 51.5909 255.835 51.4394 255.91 51.3014C255.988 51.1604 256.086 51.0389 256.203 50.9369C256.323 50.8349 256.465 50.7554 256.63 50.6984C256.795 50.6414 256.983 50.6129 257.193 50.6129C257.322 50.6129 257.428 50.6219 257.512 50.6399C257.596 50.6549 257.653 50.6699 257.683 50.6849V51.1754C257.644 51.1634 257.584 51.1499 257.503 51.1349C257.422 51.1199 257.335 51.1124 257.242 51.1124C257.029 51.1124 256.857 51.1484 256.725 51.2204C256.593 51.2924 256.491 51.3884 256.419 51.5084C256.35 51.6284 256.303 51.7634 256.279 51.9134C256.255 52.0604 256.243 52.2104 256.243 52.3634V52.9349H257.656V53.4254H256.243V57.7139H255.685ZM260.062 57.7994C259.696 57.7994 259.376 57.7439 259.103 57.6329C258.83 57.5219 258.619 57.3614 258.469 57.1514C258.322 56.9384 258.248 56.6819 258.248 56.3819C258.248 56.0789 258.326 55.8269 258.482 55.6259C258.638 55.4219 258.86 55.2629 259.148 55.1489C259.439 55.0349 259.783 54.9584 260.179 54.9194C260.788 54.8564 261.224 54.7934 261.488 54.7304C261.755 54.6644 261.889 54.5594 261.889 54.4154C261.889 54.4064 261.889 54.3974 261.889 54.3884C261.889 54.3764 261.889 54.3644 261.889 54.3524C261.889 54.0434 261.763 53.8034 261.511 53.6324C261.259 53.4614 260.9 53.3759 260.435 53.3759C259.949 53.3759 259.57 53.4719 259.297 53.6639C259.027 53.8559 258.892 54.1409 258.892 54.5189H258.343C258.343 54.1739 258.43 53.8784 258.604 53.6324C258.778 53.3834 259.022 53.1944 259.337 53.0654C259.652 52.9334 260.02 52.8674 260.44 52.8674C260.818 52.8674 261.158 52.9259 261.461 53.0429C261.764 53.1599 262.004 53.3309 262.181 53.5559C262.361 53.7779 262.451 54.0524 262.451 54.3794C262.451 54.4424 262.451 54.5054 262.451 54.5684C262.451 54.6284 262.451 54.6899 262.451 54.7529V56.8679C262.451 56.9699 262.456 57.0674 262.465 57.1604C262.474 57.2534 262.487 57.3344 262.505 57.4034C262.532 57.4904 262.561 57.5594 262.591 57.6104C262.621 57.6614 262.645 57.6959 262.663 57.7139H262.1C262.088 57.7019 262.069 57.6704 262.042 57.6194C262.015 57.5654 261.988 57.5024 261.961 57.4304C261.937 57.3554 261.92 57.2714 261.911 57.1784C261.902 57.0854 261.898 56.9729 261.898 56.8409L261.988 56.9084C261.892 57.0854 261.752 57.2414 261.569 57.3764C261.386 57.5084 261.167 57.6119 260.912 57.6869C260.657 57.7619 260.374 57.7994 260.062 57.7994ZM260.147 57.2999C260.471 57.2999 260.764 57.2474 261.025 57.1424C261.289 57.0344 261.499 56.8814 261.655 56.6834C261.811 56.4824 261.889 56.2394 261.889 55.9544V54.8384L262.01 55.0454C261.836 55.1324 261.599 55.2029 261.299 55.2569C260.999 55.3079 260.674 55.3499 260.323 55.3829C259.828 55.4309 259.451 55.5254 259.193 55.6664C258.938 55.8074 258.811 56.0369 258.811 56.3549C258.811 56.6609 258.923 56.8949 259.148 57.0569C259.373 57.2189 259.706 57.2999 260.147 57.2999ZM265.601 57.7994C265.313 57.7994 265.051 57.7694 264.814 57.7094C264.577 57.6494 264.373 57.5624 264.202 57.4484C264.031 57.3314 263.897 57.1904 263.801 57.0254C263.708 56.8574 263.66 56.6654 263.657 56.4494C263.654 56.4224 263.653 56.3954 263.653 56.3684C263.653 56.3384 263.653 56.3129 263.653 56.2919H264.215C264.215 56.3129 264.215 56.3339 264.215 56.3549C264.215 56.3729 264.215 56.3969 264.215 56.4269C264.224 56.7029 264.35 56.9174 264.593 57.0704C264.839 57.2204 265.178 57.2954 265.61 57.2954C265.886 57.2954 266.128 57.2654 266.335 57.2054C266.545 57.1424 266.71 57.0509 266.83 56.9309C266.95 56.8079 267.01 56.6594 267.01 56.4854C267.01 56.1944 266.884 55.9874 266.632 55.8644C266.383 55.7384 266.015 55.6334 265.529 55.5494C265.277 55.5074 265.042 55.4534 264.823 55.3874C264.607 55.3184 264.416 55.2329 264.251 55.1309C264.089 55.0259 263.962 54.8954 263.869 54.7394C263.776 54.5834 263.729 54.3959 263.729 54.1769C263.729 53.8979 263.813 53.6609 263.981 53.4659C264.149 53.2709 264.374 53.1224 264.656 53.0204C264.941 52.9184 265.255 52.8674 265.597 52.8674C265.936 52.8674 266.246 52.9199 266.528 53.0249C266.813 53.1269 267.041 53.2799 267.212 53.4839C267.383 53.6879 267.469 53.9459 267.469 54.2579C267.469 54.2699 267.469 54.2849 267.469 54.3029C267.469 54.3209 267.469 54.3389 267.469 54.3569H266.911C266.911 54.3419 266.911 54.3284 266.911 54.3164C266.911 54.3014 266.911 54.2879 266.911 54.2759C266.911 54.0569 266.849 53.8814 266.726 53.7494C266.603 53.6174 266.443 53.5214 266.245 53.4614C266.047 53.3984 265.835 53.3669 265.61 53.3669C265.388 53.3669 265.175 53.3939 264.971 53.4479C264.767 53.5019 264.601 53.5874 264.472 53.7044C264.346 53.8184 264.283 53.9699 264.283 54.1589C264.283 54.3479 264.343 54.5009 264.463 54.6179C264.583 54.7319 264.752 54.8249 264.971 54.8969C265.19 54.9659 265.445 55.0274 265.736 55.0814C266.003 55.1294 266.248 55.1879 266.47 55.2569C266.692 55.3229 266.884 55.4069 267.046 55.5089C267.208 55.6109 267.334 55.7399 267.424 55.8959C267.514 56.0489 267.559 56.2364 267.559 56.4584C267.559 56.6774 267.509 56.8709 267.41 57.0389C267.311 57.2039 267.172 57.3434 266.992 57.4574C266.815 57.5714 266.608 57.6569 266.371 57.7139C266.134 57.7709 265.877 57.7994 265.601 57.7994ZM270.429 57.7859C270.294 57.7859 270.162 57.7694 270.033 57.7364C269.907 57.7034 269.793 57.6449 269.691 57.5609C269.592 57.4739 269.514 57.3554 269.457 57.2054C269.4 57.0554 269.372 56.8649 269.372 56.6339C269.372 56.5709 269.372 56.5064 269.372 56.4404C269.372 56.3714 269.372 56.2994 269.372 56.2244V53.4254H268.22V52.9349H269.048C269.126 52.9349 269.187 52.9319 269.232 52.9259C269.277 52.9199 269.309 52.9049 269.327 52.8809C269.348 52.8569 269.36 52.8194 269.363 52.7684C269.369 52.7174 269.372 52.6469 269.372 52.5569V51.3914H269.93V52.9349H271.46V53.4254H269.93V56.0399C269.93 56.1119 269.93 56.1809 269.93 56.2469C269.93 56.3129 269.93 56.3744 269.93 56.4314C269.93 56.7014 269.969 56.9129 270.047 57.0659C270.128 57.2189 270.279 57.2954 270.501 57.2954C270.585 57.2954 270.668 57.2879 270.749 57.2729C270.83 57.2579 270.891 57.2414 270.933 57.2234V57.7094C270.882 57.7304 270.812 57.7484 270.722 57.7634C270.632 57.7784 270.534 57.7859 270.429 57.7859Z" fill="#797D86"/>
<rect x="288.906" y="0.905605" width="43.469" height="43.469" rx="21.7345" stroke="#FCC436" stroke-width="1.81121"/>
<path d="M293.869 57.7139V51.0764H295.372C295.81 51.0764 296.204 51.1514 296.555 51.3014C296.906 51.4514 297.206 51.6689 297.455 51.9539C297.704 52.2389 297.895 52.5869 298.027 52.9979C298.162 53.4089 298.229 53.8754 298.229 54.3974C298.229 54.9164 298.162 55.3814 298.027 55.7924C297.895 56.2034 297.704 56.5514 297.455 56.8364C297.206 57.1214 296.906 57.3389 296.555 57.4889C296.204 57.6389 295.81 57.7139 295.372 57.7139H293.869ZM294.436 57.5339L294.184 57.2234H295.313C295.781 57.2234 296.191 57.1109 296.542 56.8859C296.896 56.6579 297.17 56.3324 297.365 55.9094C297.563 55.4864 297.662 54.9824 297.662 54.3974C297.662 53.8064 297.563 53.3009 297.365 52.8809C297.17 52.4579 296.896 52.1339 296.542 51.9089C296.191 51.6809 295.781 51.5669 295.313 51.5669H294.184L294.436 51.2564V57.5339ZM299.577 55.5584V55.0589H303.447L303.339 55.2119C303.339 55.1939 303.339 55.1789 303.339 55.1669C303.339 55.1519 303.339 55.1369 303.339 55.1219C303.339 54.8129 303.273 54.5249 303.141 54.2579C303.009 53.9909 302.817 53.7764 302.565 53.6144C302.316 53.4524 302.012 53.3714 301.652 53.3714C301.286 53.3714 300.963 53.4554 300.684 53.6234C300.405 53.7884 300.188 54.0179 300.032 54.3119C299.876 54.6029 299.798 54.9419 299.798 55.3289C299.798 55.7189 299.874 56.0624 300.027 56.3594C300.183 56.6534 300.401 56.8829 300.68 57.0479C300.959 57.2099 301.284 57.2909 301.656 57.2909C301.929 57.2909 302.166 57.2579 302.367 57.1919C302.571 57.1229 302.739 57.0329 302.871 56.9219C303.006 56.8109 303.108 56.6939 303.177 56.5709C303.249 56.4449 303.291 56.3264 303.303 56.2154H303.857C303.845 56.3924 303.788 56.5739 303.686 56.7599C303.587 56.9429 303.444 57.1139 303.258 57.2729C303.075 57.4319 302.847 57.5609 302.574 57.6599C302.304 57.7559 301.992 57.8039 301.638 57.8039C301.176 57.8039 300.765 57.6989 300.405 57.4889C300.048 57.2789 299.766 56.9894 299.559 56.6204C299.355 56.2484 299.253 55.8209 299.253 55.3379C299.253 54.8519 299.357 54.4244 299.564 54.0554C299.771 53.6834 300.054 53.3924 300.414 53.1824C300.774 52.9724 301.184 52.8674 301.643 52.8674C302.111 52.8674 302.516 52.9739 302.858 53.1869C303.2 53.3999 303.464 53.6894 303.65 54.0554C303.836 54.4184 303.929 54.8264 303.929 55.2794C303.929 55.3184 303.927 55.3679 303.924 55.4279C303.924 55.4879 303.923 55.5314 303.92 55.5584H299.577ZM306.976 57.7994C306.688 57.7994 306.426 57.7694 306.189 57.7094C305.952 57.6494 305.748 57.5624 305.577 57.4484C305.406 57.3314 305.272 57.1904 305.176 57.0254C305.083 56.8574 305.035 56.6654 305.032 56.4494C305.029 56.4224 305.028 56.3954 305.028 56.3684C305.028 56.3384 305.028 56.3129 305.028 56.2919H305.59C305.59 56.3129 305.59 56.3339 305.59 56.3549C305.59 56.3729 305.59 56.3969 305.59 56.4269C305.599 56.7029 305.725 56.9174 305.968 57.0704C306.214 57.2204 306.553 57.2954 306.985 57.2954C307.261 57.2954 307.503 57.2654 307.71 57.2054C307.92 57.1424 308.085 57.0509 308.205 56.9309C308.325 56.8079 308.385 56.6594 308.385 56.4854C308.385 56.1944 308.259 55.9874 308.007 55.8644C307.758 55.7384 307.39 55.6334 306.904 55.5494C306.652 55.5074 306.417 55.4534 306.198 55.3874C305.982 55.3184 305.791 55.2329 305.626 55.1309C305.464 55.0259 305.337 54.8954 305.244 54.7394C305.151 54.5834 305.104 54.3959 305.104 54.1769C305.104 53.8979 305.188 53.6609 305.356 53.4659C305.524 53.2709 305.749 53.1224 306.031 53.0204C306.316 52.9184 306.63 52.8674 306.972 52.8674C307.311 52.8674 307.621 52.9199 307.903 53.0249C308.188 53.1269 308.416 53.2799 308.587 53.4839C308.758 53.6879 308.844 53.9459 308.844 54.2579C308.844 54.2699 308.844 54.2849 308.844 54.3029C308.844 54.3209 308.844 54.3389 308.844 54.3569H308.286C308.286 54.3419 308.286 54.3284 308.286 54.3164C308.286 54.3014 308.286 54.2879 308.286 54.2759C308.286 54.0569 308.224 53.8814 308.101 53.7494C307.978 53.6174 307.818 53.5214 307.62 53.4614C307.422 53.3984 307.21 53.3669 306.985 53.3669C306.763 53.3669 306.55 53.3939 306.346 53.4479C306.142 53.5019 305.976 53.5874 305.847 53.7044C305.721 53.8184 305.658 53.9699 305.658 54.1589C305.658 54.3479 305.718 54.5009 305.838 54.6179C305.958 54.7319 306.127 54.8249 306.346 54.8969C306.565 54.9659 306.82 55.0274 307.111 55.0814C307.378 55.1294 307.623 55.1879 307.845 55.2569C308.067 55.3229 308.259 55.4069 308.421 55.5089C308.583 55.6109 308.709 55.7399 308.799 55.8959C308.889 56.0489 308.934 56.2364 308.934 56.4584C308.934 56.6774 308.884 56.8709 308.785 57.0389C308.686 57.2039 308.547 57.3434 308.367 57.4574C308.19 57.5714 307.983 57.6569 307.746 57.7139C307.509 57.7709 307.252 57.7994 306.976 57.7994ZM311.977 57.7994C311.689 57.7994 311.427 57.7694 311.19 57.7094C310.953 57.6494 310.749 57.5624 310.578 57.4484C310.407 57.3314 310.273 57.1904 310.177 57.0254C310.084 56.8574 310.036 56.6654 310.033 56.4494C310.03 56.4224 310.029 56.3954 310.029 56.3684C310.029 56.3384 310.029 56.3129 310.029 56.2919H310.591C310.591 56.3129 310.591 56.3339 310.591 56.3549C310.591 56.3729 310.591 56.3969 310.591 56.4269C310.6 56.7029 310.726 56.9174 310.969 57.0704C311.215 57.2204 311.554 57.2954 311.986 57.2954C312.262 57.2954 312.504 57.2654 312.711 57.2054C312.921 57.1424 313.086 57.0509 313.206 56.9309C313.326 56.8079 313.386 56.6594 313.386 56.4854C313.386 56.1944 313.26 55.9874 313.008 55.8644C312.759 55.7384 312.391 55.6334 311.905 55.5494C311.653 55.5074 311.418 55.4534 311.199 55.3874C310.983 55.3184 310.792 55.2329 310.627 55.1309C310.465 55.0259 310.338 54.8954 310.245 54.7394C310.152 54.5834 310.105 54.3959 310.105 54.1769C310.105 53.8979 310.189 53.6609 310.357 53.4659C310.525 53.2709 310.75 53.1224 311.032 53.0204C311.317 52.9184 311.631 52.8674 311.973 52.8674C312.312 52.8674 312.622 52.9199 312.904 53.0249C313.189 53.1269 313.417 53.2799 313.588 53.4839C313.759 53.6879 313.845 53.9459 313.845 54.2579C313.845 54.2699 313.845 54.2849 313.845 54.3029C313.845 54.3209 313.845 54.3389 313.845 54.3569H313.287C313.287 54.3419 313.287 54.3284 313.287 54.3164C313.287 54.3014 313.287 54.2879 313.287 54.2759C313.287 54.0569 313.225 53.8814 313.102 53.7494C312.979 53.6174 312.819 53.5214 312.621 53.4614C312.423 53.3984 312.211 53.3669 311.986 53.3669C311.764 53.3669 311.551 53.3939 311.347 53.4479C311.143 53.5019 310.977 53.5874 310.848 53.7044C310.722 53.8184 310.659 53.9699 310.659 54.1589C310.659 54.3479 310.719 54.5009 310.839 54.6179C310.959 54.7319 311.128 54.8249 311.347 54.8969C311.566 54.9659 311.821 55.0274 312.112 55.0814C312.379 55.1294 312.624 55.1879 312.846 55.2569C313.068 55.3229 313.26 55.4069 313.422 55.5089C313.584 55.6109 313.71 55.7399 313.8 55.8959C313.89 56.0489 313.935 56.2364 313.935 56.4584C313.935 56.6774 313.885 56.8709 313.786 57.0389C313.687 57.2039 313.548 57.3434 313.368 57.4574C313.191 57.5714 312.984 57.6569 312.747 57.7139C312.51 57.7709 312.253 57.7994 311.977 57.7994ZM315.354 55.5584V55.0589H319.224L319.116 55.2119C319.116 55.1939 319.116 55.1789 319.116 55.1669C319.116 55.1519 319.116 55.1369 319.116 55.1219C319.116 54.8129 319.05 54.5249 318.918 54.2579C318.786 53.9909 318.594 53.7764 318.342 53.6144C318.093 53.4524 317.788 53.3714 317.428 53.3714C317.062 53.3714 316.74 53.4554 316.461 53.6234C316.182 53.7884 315.964 54.0179 315.808 54.3119C315.652 54.6029 315.574 54.9419 315.574 55.3289C315.574 55.7189 315.651 56.0624 315.804 56.3594C315.96 56.6534 316.177 56.8829 316.456 57.0479C316.735 57.2099 317.061 57.2909 317.433 57.2909C317.706 57.2909 317.943 57.2579 318.144 57.1919C318.348 57.1229 318.516 57.0329 318.648 56.9219C318.783 56.8109 318.885 56.6939 318.954 56.5709C319.026 56.4449 319.068 56.3264 319.08 56.2154H319.633C319.621 56.3924 319.564 56.5739 319.462 56.7599C319.363 56.9429 319.221 57.1139 319.035 57.2729C318.852 57.4319 318.624 57.5609 318.351 57.6599C318.081 57.7559 317.769 57.8039 317.415 57.8039C316.953 57.8039 316.542 57.6989 316.182 57.4889C315.825 57.2789 315.543 56.9894 315.336 56.6204C315.132 56.2484 315.03 55.8209 315.03 55.3379C315.03 54.8519 315.133 54.4244 315.34 54.0554C315.547 53.6834 315.831 53.3924 316.191 53.1824C316.551 52.9724 316.96 52.8674 317.419 52.8674C317.887 52.8674 318.292 52.9739 318.634 53.1869C318.976 53.3999 319.24 53.6894 319.426 54.0554C319.612 54.4184 319.705 54.8264 319.705 55.2794C319.705 55.3184 319.704 55.3679 319.701 55.4279C319.701 55.4879 319.699 55.5314 319.696 55.5584H315.354ZM321.02 57.7139V52.9349H321.578V54.3434L321.38 54.2804C321.398 54.1304 321.442 53.9744 321.511 53.8124C321.583 53.6474 321.682 53.4929 321.808 53.3489C321.934 53.2049 322.091 53.0894 322.28 53.0024C322.472 52.9124 322.7 52.8674 322.964 52.8674C323.156 52.8674 323.311 52.8839 323.428 52.9169C323.545 52.9499 323.618 52.9754 323.648 52.9934L323.495 53.5334C323.465 53.5124 323.404 53.4854 323.311 53.4524C323.218 53.4194 323.084 53.4029 322.91 53.4029C322.658 53.4029 322.447 53.4524 322.276 53.5514C322.105 53.6474 321.968 53.7734 321.866 53.9294C321.764 54.0854 321.691 54.2519 321.646 54.4289C321.601 54.6029 321.578 54.7709 321.578 54.9329V57.7139H321.02ZM326.245 57.7859C326.11 57.7859 325.978 57.7694 325.849 57.7364C325.723 57.7034 325.609 57.6449 325.507 57.5609C325.408 57.4739 325.33 57.3554 325.273 57.2054C325.216 57.0554 325.187 56.8649 325.187 56.6339C325.187 56.5709 325.187 56.5064 325.187 56.4404C325.187 56.3714 325.187 56.2994 325.187 56.2244V53.4254H324.035V52.9349H324.863C324.941 52.9349 325.003 52.9319 325.048 52.9259C325.093 52.9199 325.124 52.9049 325.142 52.8809C325.163 52.8569 325.175 52.8194 325.178 52.7684C325.184 52.7174 325.187 52.6469 325.187 52.5569V51.3914H325.745V52.9349H327.275V53.4254H325.745V56.0399C325.745 56.1119 325.745 56.1809 325.745 56.2469C325.745 56.3129 325.745 56.3744 325.745 56.4314C325.745 56.7014 325.784 56.9129 325.862 57.0659C325.943 57.2189 326.095 57.2954 326.317 57.2954C326.401 57.2954 326.483 57.2879 326.564 57.2729C326.645 57.2579 326.707 57.2414 326.749 57.2234V57.7094C326.698 57.7304 326.627 57.7484 326.537 57.7634C326.447 57.7784 326.35 57.7859 326.245 57.7859Z" fill="#797D86"/>
<path d="M323.212 18.0158V30.641C323.212 31.0912 322.847 31.4555 322.397 31.4555H298.776C298.326 31.4555 297.962 31.0912 297.962 30.641V18.0158C297.962 17.5664 298.326 17.2013 298.776 17.2013L312.622 14.9864" stroke="#FCC436" stroke-width="2.71681" stroke-miterlimit="10" stroke-linecap="round" stroke-linejoin="round"/>
<path d="M319.554 13.9641C321.608 14.1719 323.212 15.9071 323.212 18.0158" stroke="#FCC436" stroke-width="2.71681" stroke-miterlimit="10" stroke-linecap="round" stroke-linejoin="round"/>
<path d="M297.962 17.6593L298.369 22.903C299.494 22.903 300.405 21.9914 300.405 20.8671C300.405 19.7423 301.317 18.8304 302.442 18.8304C303.566 18.8304 304.478 19.7423 304.478 20.8671C304.478 21.9914 305.389 22.903 306.514 22.903C307.639 22.903 308.551 21.9914 308.551 20.8671C308.551 19.7423 309.462 18.8304 310.587 18.8304C311.712 18.8304 312.623 19.7423 312.623 20.8671C312.623 21.9914 313.535 22.903 314.659 22.903C315.784 22.903 316.696 21.9914 316.696 20.8671C316.696 19.7423 317.607 18.8304 318.732 18.8304C319.857 18.8304 320.768 19.7423 320.768 20.8671C320.768 21.9914 321.68 22.903 322.805 22.903L322.413 14.4897" fill="#FCC436"/>
<path d="M297.962 26.8845H323.212" stroke="#FCC436" stroke-width="2.71681" stroke-miterlimit="10" stroke-linecap="round" stroke-linejoin="round"/>
<path d="M316.085 17.3381C317.96 17.3381 319.48 15.8183 319.48 13.9434C319.48 12.0686 317.96 10.5487 316.085 10.5487C314.21 10.5487 312.69 12.0686 312.69 13.9434C312.69 15.8183 314.21 17.3381 316.085 17.3381Z" fill="white" stroke="#FCC436" stroke-width="2.71681" stroke-miterlimit="10" stroke-linecap="round" stroke-linejoin="round"/>
<path d="M316.085 13.1287C316.085 10.8794 317.908 9.05605 320.157 9.05605" stroke="#FCC436" stroke-width="1.81121" stroke-miterlimit="10" stroke-linecap="round" stroke-linejoin="round"/>
<defs>
<clipPath id="clip0_13_161">
<rect width="30" height="30" fill="white" transform="translate(120 8)"/>
</clipPath>
</defs>
</svg>
